<svg xmlns="http://www.w3.org/2000/svg" viewBox="0 0 24 24" fill="none" stroke="#0ea5e9" stroke-width="2" stroke-linecap="round" stroke-linejoin="round">
  <path d="M11 2v2" />
  <path d="M5 2v2" />
  <path d="M5 3H4a2 2 0 0 0-2 2v4a6 6 0 0 0 12 0V5a2 2 0 0 0-2-2h-1" />
  <path d="M8 15a6 6 0 0 0 12 0v-3" />
  <circle cx="20" cy="10" r="2" />
  <path d="M19 14c1.49-1.46 3-3.21 3-5.5A5.5 5.5 0 0 0 16.5 3c-1.76 0-3 .5-4.5 2-1.5-1.5-2.74-2-4.5-2A5.5 5.5 0 0 0 2 8.5c0 2.3 1.5 4.05 3 5.5l7 7Z" fill="#ef4444" stroke="#ef4444" />
</svg>
